<svg width="33" height="13" viewBox="0 0 33 13" fill="none" xmlns="http://www.w3.org/2000/svg">
<path d="M4.76823 12.9959C6.45363 12.9959 7.81991 11.6602 7.81991 10.0125C7.81991 8.36485 6.45363 7.02914 4.76823 7.02914C3.08284 7.02914 1.71655 8.36485 1.71655 10.0125C1.71655 11.6602 3.08284 12.9959 4.76823 12.9959Z" fill="#5B9DB4"/>
<path d="M27.4116 12.9959C29.097 12.9959 30.4633 11.6602 30.4633 10.0125C30.4633 8.36485 29.097 7.02914 27.4116 7.02914C25.7262 7.02914 24.3599 8.36485 24.3599 10.0125C24.3599 11.6602 25.7262 12.9959 27.4116 12.9959Z" fill="#5B9DB4"/>
<path d="M32.412 9.19179C32.1871 9.31405 31.0547 9.35468 30.8007 8.8052C30.5467 8.25156 29.8139 6.37105 27.4116 6.31813C25.0092 6.26119 23.8767 8.42246 23.7935 9.76981C23.7643 10.246 23.3855 10.4333 22.6901 10.4333C22.457 10.4333 19.4425 10.4617 16.3532 10.4903C16.2241 10.4903 16.095 10.4943 15.966 10.4943C15.7078 10.4943 15.4497 10.4984 15.1915 10.5025C15.0666 10.5025 14.9375 10.5025 14.8127 10.5066C14.4296 10.5066 14.059 10.5107 13.6927 10.5146C13.5719 10.5146 13.4512 10.5188 13.3346 10.5188C12.3229 10.5309 11.4194 10.5431 10.7407 10.5513C10.0579 10.5594 9.60404 10.5676 9.4958 10.5716C8.87542 10.6002 8.67561 10.185 8.64642 9.87973C8.62142 9.5785 7.99692 6.29779 5.06162 6.29369C2.58431 6.2896 1.406 8.21899 0.673251 9.23657C0.669064 9.23657 0.669064 9.24067 0.669064 9.24067C0.573314 9.38316 0.452564 9.38725 0.519189 9.08602C0.519189 9.0779 0.523377 9.06971 0.523377 9.06158C0.735751 8.15392 1.15625 6.40771 1.30194 6.20827C2.53856 4.48656 9.72067 3.52586 10.3994 3.52586L12.7725 0.367293C13.5095 0.00917794 17.4357 -0.121151 21.8158 0.131258C22.1863 0.151544 22.561 0.208552 22.9358 0.294032C23.1564 0.346885 23.3813 0.407986 23.602 0.481247C23.7185 0.517907 23.8351 0.55854 23.9517 0.599294C24.0641 0.64402 24.1807 0.688808 24.2973 0.733656C24.5263 0.827263 24.7511 0.929058 24.976 1.04301C25.0884 1.09996 25.2008 1.15697 25.3132 1.21801C25.5339 1.33605 25.7545 1.46229 25.9711 1.59244C26.1876 1.7227 26.3999 1.86116 26.6081 2.00352C26.8163 2.14198 27.0203 2.28844 27.2201 2.43905C27.2951 2.49191 27.3659 2.54898 27.4366 2.60183C27.4408 2.60592 27.4408 2.60592 27.4408 2.60592C27.7656 2.85424 28.0695 3.10249 28.3609 3.359C28.4526 3.43629 28.5399 3.5137 28.6274 3.59106C28.9148 3.84335 29.1812 4.09985 29.431 4.34401C29.5643 4.47428 29.6933 4.60455 29.8099 4.73066C30.3386 5.27208 30.7591 5.76455 31.0506 6.13501C31.0506 6.13501 31.0506 6.13898 31.0548 6.13898C31.1881 6.31001 31.2921 6.45659 31.3671 6.56651C32.1997 7.82422 32.7159 9.02498 32.412 9.19179Z" fill="#60BAD0"/>
<path d="M4.76822 11.7682C5.76002 11.7682 6.56403 10.9822 6.56403 10.0126C6.56403 9.04295 5.76002 8.25693 4.76822 8.25693C3.77642 8.25693 2.97241 9.04295 2.97241 10.0126C2.97241 10.9822 3.77642 11.7682 4.76822 11.7682Z" fill="white"/>
<path d="M27.4117 11.7682C28.4035 11.7682 29.2075 10.9822 29.2075 10.0126C29.2075 9.04295 28.4035 8.25693 27.4117 8.25693C26.4199 8.25693 25.6158 9.04295 25.6158 10.0126C25.6158 10.9822 26.4199 11.7682 27.4117 11.7682Z" fill="white"/>
<path d="M14.9883 0.951019C13.9075 0.951019 13.0598 1.17294 12.4055 2.46346C11.6985 3.85822 12.0865 3.88578 12.893 3.89299C13.7343 3.90056 16.8712 3.92232 17.7036 3.89299C18.3827 3.8691 18.7421 3.76865 18.7633 2.91921C18.7844 2.06978 18.7712 1.82611 18.7633 1.51474C18.7499 0.990796 18.4002 0.950958 17.5129 0.950958C16.56 0.951019 14.9883 0.951019 14.9883 0.951019Z" fill="#C4E6F4"/>
<path d="M19.4819 1.71949C19.4747 2.15453 19.4627 2.93999 19.505 3.1679C19.5474 3.3958 19.5262 3.87233 20.268 3.89305C21.0097 3.91376 24.6124 3.91376 24.9091 3.89305C25.2058 3.87233 25.6765 3.48019 25.333 2.87785C24.7545 1.86363 23.7937 0.95108 19.9713 0.95108C19.5967 0.951019 19.4892 1.28506 19.4819 1.71949Z" fill="#C4E6F4"/>
<g opacity="0.1">
<path d="M32.412 9.19159C32.1871 9.31385 31.0547 9.35449 30.8007 8.805C30.5467 8.25136 29.8139 6.37085 27.4116 6.31793C25.0092 6.26099 23.8767 8.42226 23.7934 9.76961C23.7643 10.2458 23.3854 10.4331 22.6901 10.4331C22.457 10.4331 19.4425 10.4615 16.3532 10.4901C16.2241 10.4901 16.095 10.4941 15.966 10.4941C15.7078 10.4941 15.4497 10.4982 15.1915 10.5023C15.0666 10.5023 14.9375 10.5023 14.8127 10.5064C14.4296 10.5064 14.059 10.5105 13.6927 10.5144C13.5719 10.5144 13.4512 10.5186 13.3346 10.5186L23.6019 0.481049C23.7185 0.517709 23.8351 0.558342 23.9517 0.599096C24.0641 0.643822 24.1807 0.68861 24.2973 0.733458C24.5263 0.831159 24.7511 0.932893 24.9759 1.04281C25.0884 1.09976 25.2008 1.15677 25.3132 1.21781C25.5339 1.33586 25.7545 1.46209 25.9711 1.59224C26.1876 1.72251 26.3999 1.86096 26.6081 2.00333C26.8163 2.14178 27.0203 2.28824 27.2201 2.43886C27.2951 2.49171 27.3659 2.54878 27.4366 2.60163C27.4408 2.60572 27.4408 2.60572 27.4408 2.60572C27.7656 2.85404 28.0695 3.10229 28.3609 3.3588C28.4526 3.43609 28.5399 3.51351 28.6274 3.59086C28.9148 3.84315 29.1812 4.09965 29.431 4.34381C29.5601 4.47408 29.6891 4.60435 29.8099 4.73046C30.3386 5.27188 30.7591 5.76436 31.0506 6.13481C31.0506 6.13481 31.0506 6.13879 31.0548 6.13879C31.1881 6.30981 31.2921 6.45639 31.3671 6.56631C32.1997 7.82402 32.7159 9.02478 32.412 9.19159Z" fill="#040000"/>
</g>
</svg>
