<svg width="24" height="24" viewBox="0 0 24 24" fill="none" xmlns="http://www.w3.org/2000/svg">
<path fill-rule="evenodd" clip-rule="evenodd" d="M20.3008 12.4336C21.3535 12.4336 22.207 13.2871 22.207 14.3398C22.207 15.3926 21.3535 16.2461 20.3008 16.2461C19.2481 16.2461 18.3945 15.3926 18.3945 14.3398C18.3945 13.2871 19.2481 12.4336 20.3008 12.4336ZM4.49219 13.4297V14.1152H5.17774C5.09571 13.7793 4.83008 13.5117 4.49219 13.4297ZM5.17969 14.5625H4.49219V15.248C4.83008 15.168 5.09571 14.9004 5.17969 14.5625ZM4.04492 15.25V14.5645H3.35938C3.44141 14.9004 3.70899 15.166 4.04492 15.25ZM3.35938 14.1172H4.04492V13.4316C3.70899 13.5117 3.44141 13.7793 3.35938 14.1172ZM20.5254 13.4297V14.1152H21.2109C21.1289 13.7793 20.8633 13.5117 20.5254 13.4297ZM21.2109 14.5625H20.5254V15.248C20.8633 15.168 21.1289 14.9004 21.2109 14.5625ZM20.0781 15.25V14.5645H19.3926C19.4746 14.9004 19.7402 15.166 20.0781 15.25ZM19.3906 14.1172H20.0762V13.4316C19.7402 13.5117 19.4746 13.7793 19.3906 14.1172ZM9.62696 10.25C9.32617 10.1816 9.02735 10.1816 8.72657 10.1953C11.0801 8.95898 12.0039 8.15625 14.7598 8.31836L14.3809 10.832L9.84375 11.0039C9.88477 10.8848 9.90821 10.8203 9.91602 10.7012C9.9375 10.3613 9.9336 10.3203 9.62696 10.25ZM15.4531 8.36328L14.9609 10.7988L19.6738 10.6074C20.1582 10.5879 20.2422 10.375 19.9492 9.9668C19.8164 9.78125 19.668 9.59765 19.4981 9.41601C18.2793 8.11523 17.0664 8.38476 15.4531 8.36328ZM0.0898455 13.0801H0.234377C0.32422 12.6816 0.501955 12.3223 0.763674 12C1.33789 11.2852 1.59961 11.375 2.45313 11.2207L7.23047 10.3203C8.29102 9.5664 9.57032 8.89453 11.1309 8.32812C12.5781 7.80078 13.5996 7.75 15.1484 7.75195C16.0352 7.7539 16.9336 7.80664 17.8457 7.91601C18.3086 7.94531 18.7617 8.00781 19.207 8.09765C19.7402 8.20508 20.2637 8.35351 20.7773 8.5293L22.6914 9.63476C23.2559 9.96094 23.377 10.3418 23.4492 10.9648L23.7188 13.2656H23.9981V14.5371C23.959 14.9648 23.791 15.0293 23.4356 15.0293H22.9727C23.1523 11.0078 17.4941 10.3203 17.6172 15.3477H6.78906C7.51758 11.8809 4.02149 10.6777 2.30469 12.6602C1.7832 13.2637 1.60156 14.0879 1.64844 15.0625H0.396486C0.296877 15.0156 0.218752 14.9512 0.160158 14.8711C-0.0449202 14.5918 1.70092e-06 13.75 0.0156267 13.2637C0.0175798 13.1328 -0.0234358 13.0801 0.0898455 13.0801ZM4.26953 12.4336C5.32227 12.4336 6.17578 13.2871 6.17578 14.3398C6.17578 15.3926 5.32227 16.2461 4.26953 16.2461C3.2168 16.2461 2.36328 15.3926 2.36328 14.3398C2.36328 13.2871 3.2168 12.4336 4.26953 12.4336Z" fill="#5B9DB4"/>
</svg>
