<svg width="24" height="24" viewBox="0 0 24 24" fill="none" xmlns="http://www.w3.org/2000/svg">
<g clip-path="url(#clip0_18_371)">
<path fill-rule="evenodd" clip-rule="evenodd" d="M12.7383 6.03125H17.9219H19.2168C19.291 6.03125 19.3184 6.09766 19.3496 6.16406L19.8691 7.24414C19.9004 7.31055 19.8086 7.37695 19.7363 7.37695H10.9238C10.3477 7.37891 11.332 6.03125 12.7383 6.03125ZM4.6543 14.9648V15.6953H5.38477C5.29688 15.3379 5.01368 15.0527 4.6543 14.9648ZM5.38477 16.1738H4.6543V16.9043C5.01368 16.8164 5.29688 16.5332 5.38477 16.1738ZM4.17774 16.9043V16.1738H3.44727C3.53516 16.5332 3.81837 16.8164 4.17774 16.9043ZM3.44532 15.6973H4.17579V14.9668C3.81837 15.0547 3.53516 15.3379 3.44532 15.6973ZM17.5879 14.9648V15.6953H18.3184C18.2305 15.3379 17.9473 15.0527 17.5879 14.9648ZM18.3184 16.1738H17.5879V16.9043C17.9473 16.8164 18.2305 16.5332 18.3184 16.1738ZM17.1113 16.9043V16.1738H16.3809C16.4668 16.5332 16.75 16.8164 17.1113 16.9043ZM16.3789 15.6973H17.1094V14.9668C16.75 15.0547 16.4668 15.3379 16.3789 15.6973ZM17.5117 8.52539H18.1992C19.1914 8.57031 19.5996 8.53516 19.9941 8.83594C20.4824 9.20898 20.6738 10.8574 20.877 11.6191C20.8906 11.6699 20.832 11.7168 20.7793 11.7168H17.75C17.6973 11.7168 17.6582 11.6738 17.6524 11.6191L17.4141 8.62109C17.4102 8.57031 17.459 8.52539 17.5117 8.52539ZM12.9082 8.54297H10.6621C9.63673 8.54297 7.94923 10.2285 7.50782 11.5918C7.48634 11.6582 7.56446 11.7188 7.63477 11.7188H12.5527C12.6231 11.7188 12.6699 11.6621 12.6797 11.5918L13.0371 8.66992C13.043 8.59961 12.9766 8.54297 12.9082 8.54297ZM13.8809 8.53125H16.6289C16.6816 8.53125 16.7227 8.57617 16.7266 8.62891L16.9356 11.6211C16.9395 11.6738 16.8906 11.7188 16.8379 11.7188H13.5234C13.4707 11.7188 13.4199 11.6738 13.4258 11.6211L13.7832 8.62891C13.7891 8.57422 13.8262 8.53125 13.8809 8.53125ZM4.41602 13.9043C5.53712 13.9043 6.44727 14.8145 6.44727 15.9355C6.44727 17.0566 5.53712 17.9668 4.41602 17.9668C3.29493 17.9668 2.38477 17.0566 2.38477 15.9355C2.38477 14.8145 3.29493 13.9043 4.41602 13.9043ZM0.353523 13.9961C0.457039 13.9492 0.57032 13.9277 0.693367 13.9297C0.687508 13.2891 0.730477 12.7305 0.878914 12.334C0.933602 12.1055 1.03321 11.9395 1.16602 11.8184C1.58399 11.4453 5.31641 11.1172 6.10352 11.0156C7.07032 10.0703 8.14649 9.20508 9.29298 8.38672C9.61134 8.11719 10.0664 7.98438 10.6406 7.9707L19.7051 7.96289C20.3906 7.95898 20.918 8.25195 21.2539 8.91016L22.0098 11.0879L22.1816 11.041V10.1934C22.1504 9.91016 22.2617 9.76953 22.4785 9.73437H23.4941C23.7734 9.74609 23.9707 9.88672 24.002 10.291V13.3027C24.0039 13.6133 23.8906 13.8164 23.6035 13.8594H22.6602C22.5664 13.8809 22.5957 13.9531 22.5879 14.0527V15.0801C22.5195 15.8379 22.3125 16.4238 21.7051 16.5H19.8672C19.9063 15.6094 19.7383 14.8809 19.3301 14.3359C17.8477 12.3555 14.6309 13.5352 14.8477 16.5059H6.94923C7.01563 15.5566 6.83595 14.8359 6.44337 14.3184C4.96485 12.3672 1.5254 13.4199 1.93165 16.5664H0.710945C-0.0253828 16.5664 -0.265617 14.2715 0.353523 13.9961ZM17.3496 13.9043C18.4707 13.9043 19.3809 14.8145 19.3809 15.9355C19.3809 17.0566 18.4707 17.9668 17.3496 17.9668C16.2285 17.9668 15.3184 17.0566 15.3184 15.9355C15.3184 14.8145 16.2266 13.9043 17.3496 13.9043Z" fill="#5B9DB4"/>
</g>
<defs>
<clipPath id="clip0_18_371">
<rect width="24" height="24" fill="white"/>
</clipPath>
</defs>
</svg>
